<?xml version="1.0" encoding="utf-8"?>
<svg version="1.1" id="Warstwa_1" xmlns="http://www.w3.org/2000/svg" xmlns:xlink="http://www.w3.org/1999/xlink" x="0px" y="0px"
	 viewBox="0 0 16 16" style="enable-background:new 0 0 16 16;" xml:space="preserve">
<style type="text/css">
	.st0{stroke:#FFFF00;stroke-width:0.5;stroke-linecap:square;stroke-linejoin:round;stroke-miterlimit:10;}
</style>
<path class="st0" d="M2.5,15C2.2,15,2,14.8,2,14.5S2.2,14,2.5,14h1v-1c0-1.7,1-3.3,2.6-4.1c0.3-0.1,0.4-0.4,0.4-0.6V7.7
	c0-0.2-0.2-0.5-0.4-0.6C4.5,6.3,3.5,4.7,3.5,3V2h-1C2.2,2,2,1.8,2,1.5S2.2,1,2.5,1h11C13.8,1,14,1.2,14,1.5S13.8,2,13.5,2h-1v1
	c0,1.7-1,3.3-2.6,4.1C9.7,7.2,9.5,7.4,9.5,7.7v0.7c0,0.2,0.2,0.5,0.4,0.6c1.6,0.7,2.6,2.3,2.6,4.1v1h1c0.3,0,0.5,0.2,0.5,0.5
	S13.8,15,13.5,15H2.5z M4.5,2v1c0,0.5,0.1,1,0.3,1.5h6.3c0.2-0.5,0.3-1,0.3-1.5V2H4.5z M7.5,8.4c0,0.7-0.5,1.2-1,1.5
	c-1.2,0.6-2,1.8-2,3.2c0,0,0.9-1.3,3-1.5V8.4z M8.5,8.4v3.2c2.1,0.2,3,1.5,3,1.5c0-1.3-0.8-2.6-2-3.2C9,9.6,8.5,9.1,8.5,8.4L8.5,8.4
	z"/>
</svg>
