<?xml version="1.0" encoding="utf-8"?>
<!-- Generator: Adobe Illustrator 26.5.0, SVG Export Plug-In . SVG Version: 6.00 Build 0)  -->
<svg version="1.1" id="Warstwa_1" xmlns="http://www.w3.org/2000/svg" xmlns:xlink="http://www.w3.org/1999/xlink" x="0px" y="0px"
	 viewBox="0 0 24 24" style="enable-background:new 0 0 24 24;" xml:space="preserve">
<style type="text/css">
	.st0{fill:#00FF00;}
</style>
<g>
	<path d="M12,20.8c-0.6,0-1.2-0.2-1.6-0.7s-0.7-1-0.7-1.6s0.2-1.2,0.7-1.6s1-0.7,1.6-0.7s1.2,0.2,1.6,0.7s0.7,1,0.7,1.6
		s-0.2,1.2-0.7,1.6S12.6,20.8,12,20.8z M17.6,15c-0.7-0.7-1.5-1.2-2.4-1.6c-1-0.4-2.1-0.6-3.2-0.6c-1.1,0-2.2,0.2-3.2,0.6
		c-0.9,0.4-1.7,0.9-2.4,1.6l-1.8-1.8c0.9-0.9,2-1.6,3.2-2.1c1.3-0.6,2.7-0.8,4.2-0.8c1.5,0,2.9,0.3,4.2,0.9c1.2,0.5,2.3,1.3,3.2,2.1
		L17.6,15z M21.9,10.7c-1.3-1.2-2.7-2.2-4.4-2.9C15.8,7.1,14,6.8,12,6.8c-2,0-3.8,0.4-5.5,1.1c-1.6,0.7-3.1,1.7-4.4,2.9L0.4,9
		c1.5-1.5,3.2-2.6,5.1-3.4c2-0.9,4.2-1.3,6.5-1.3s4.5,0.4,6.5,1.3c1.9,0.8,3.7,2,5.1,3.4L21.9,10.7z"/>
	<path class="st0" d="M12,4.5c2.3,0,4.4,0.4,6.4,1.3c1.8,0.8,3.5,1.9,4.9,3.2l-1.4,1.4c-1.2-1.2-2.7-2.1-4.3-2.8
		C15.9,6.9,14,6.5,12,6.5S8.1,6.9,6.4,7.6c-1.6,0.7-3,1.6-4.3,2.8L0.7,9c1.4-1.3,3-2.4,4.9-3.2C7.6,4.9,9.7,4.5,12,4.5 M12,10.5
		c1.5,0,2.8,0.3,4.1,0.8c1.1,0.5,2.1,1.1,3,1.9l-1.4,1.4c-0.7-0.6-1.5-1.1-2.3-1.5c-1-0.4-2.1-0.7-3.3-0.7s-2.3,0.2-3.3,0.7
		c-0.9,0.4-1.6,0.9-2.3,1.5L5,13.2c0.9-0.8,1.8-1.4,3-1.9C9.2,10.8,10.5,10.5,12,10.5 M12,16.5c0.6,0,1,0.2,1.4,0.6
		c0.4,0.4,0.6,0.9,0.6,1.4s-0.2,1-0.6,1.4c-0.4,0.4-0.9,0.6-1.4,0.6s-1-0.2-1.4-0.6c-0.4-0.4-0.6-0.9-0.6-1.4s0.2-1,0.6-1.4
		C11,16.7,11.4,16.5,12,16.5 M12,4C9.6,4,7.4,4.4,5.4,5.3C3.3,6.2,1.5,7.4,0,9l2.1,2.1c1.3-1.3,2.8-2.3,4.5-3S10.1,7,12,7
		s3.7,0.4,5.4,1.1s3.2,1.7,4.5,3L24,9c-1.5-1.6-3.3-2.8-5.4-3.7C16.6,4.4,14.4,4,12,4L12,4z M12,10c-1.5,0-3,0.3-4.3,0.9
		s-2.5,1.4-3.5,2.3l2.1,2.2c0.7-0.7,1.6-1.3,2.5-1.7s2-0.6,3.1-0.6s2.1,0.2,3.1,0.6s1.8,1,2.5,1.7l2.1-2.1c-1-1-2.1-1.8-3.5-2.4
		C15,10.3,13.5,10,12,10L12,10z M12,16c-0.7,0-1.3,0.2-1.8,0.7c-0.5,0.5-0.7,1.1-0.7,1.8s0.2,1.3,0.7,1.8c0.5,0.5,1.1,0.7,1.8,0.7
		s1.3-0.2,1.8-0.7c0.5-0.5,0.7-1.1,0.7-1.8s-0.2-1.3-0.7-1.8C13.3,16.2,12.7,16,12,16L12,16z"/>
</g>
</svg>
