<?xml version="1.0" encoding="utf-8"?>
<!-- Generator: Adobe Illustrator 26.5.0, SVG Export Plug-In . SVG Version: 6.00 Build 0)  -->
<svg version="1.1" id="Warstwa_1" xmlns="http://www.w3.org/2000/svg" xmlns:xlink="http://www.w3.org/1999/xlink" x="0px" y="0px"
	 viewBox="0 0 16 16" style="enable-background:new 0 0 16 16;" xml:space="preserve">
<style type="text/css">
	.st0{fill:#FF0000;}
</style>
<g>
	<path class="st0" d="M8,1c3.9,0,7,3.1,7,7s-3.1,7-7,7s-7-3.1-7-7S4.1,1,8,1 M8,5.9L6.1,3.9C5.8,3.7,5.4,3.5,5,3.5
		c-0.4,0-0.8,0.2-1.1,0.4C3.7,4.2,3.5,4.6,3.5,5s0.2,0.8,0.4,1.1L5.9,8L3.9,9.9c-0.3,0.3-0.4,0.7-0.4,1.1s0.2,0.8,0.4,1.1
		c0.3,0.3,0.7,0.4,1.1,0.4c0.4,0,0.8-0.2,1.1-0.4L8,10.1l1.9,1.9c0.3,0.3,0.7,0.4,1.1,0.4c0.4,0,0.8-0.2,1.1-0.4
		c0.3-0.3,0.4-0.7,0.4-1.1s-0.2-0.8-0.4-1.1L10.1,8l1.9-1.9c0.3-0.3,0.4-0.7,0.4-1.1s-0.2-0.8-0.4-1.1c-0.3-0.3-0.7-0.4-1.1-0.4
		c-0.4,0-0.8,0.2-1.1,0.4L8,5.9 M8,0C3.6,0,0,3.6,0,8s3.6,8,8,8s8-3.6,8-8S12.4,0,8,0L8,0z M8,7.3l2.6-2.6c0.1-0.1,0.2-0.1,0.4-0.1
		s0.3,0,0.4,0.1c0.2,0.2,0.2,0.5,0,0.7L8.7,8l2.6,2.6c0.2,0.2,0.2,0.5,0,0.7c-0.1,0.1-0.2,0.1-0.4,0.1s-0.3,0-0.4-0.1L8,8.7
		l-2.6,2.6c-0.1,0.1-0.2,0.1-0.4,0.1s-0.3,0-0.4-0.1c-0.2-0.2-0.2-0.5,0-0.7L7.3,8L4.6,5.4c-0.2-0.2-0.2-0.5,0-0.7
		C4.7,4.5,4.9,4.5,5,4.5s0.3,0,0.4,0.1L8,7.3L8,7.3z"/>
</g>
</svg>
